<svg width="56" height="50" viewBox="0 0 56 50" fill="none" xmlns="http://www.w3.org/2000/svg">
<g filter="url(#filter0_i_1_218)">
<rect width="56" height="50" fill="white"/>
<path d="M28 20.5C28.8284 20.5 29.5 19.8284 29.5 19C29.5 18.1716 28.8284 17.5 28 17.5C27.1716 17.5 26.5 18.1716 26.5 19C26.5 19.8284 27.1716 20.5 28 20.5Z" fill="black"/>
<path d="M28 26.5C28.8284 26.5 29.5 25.8284 29.5 25C29.5 24.1716 28.8284 23.5 28 23.5C27.1716 23.5 26.5 24.1716 26.5 25C26.5 25.8284 27.1716 26.5 28 26.5Z" fill="black"/>
<path d="M28 32.5C28.8284 32.5 29.5 31.8284 29.5 31C29.5 30.1716 28.8284 29.5 28 29.5C27.1716 29.5 26.5 30.1716 26.5 31C26.5 31.8284 27.1716 32.5 28 32.5Z" fill="black"/>
</g>
<defs>
<filter id="filter0_i_1_218" x="0" y="0" width="56" height="50" filterUnits="userSpaceOnUse" color-interpolation-filters="sRGB">
<feFlood flood-opacity="0" result="BackgroundImageFix"/>
<feBlend mode="normal" in="SourceGraphic" in2="BackgroundImageFix" result="shape"/>
<feColorMatrix in="SourceAlpha" type="matrix" values="0 0 0 0 0 0 0 0 0 0 0 0 0 0 0 0 0 0 127 0" result="hardAlpha"/>
<feOffset dy="-1"/>
<feComposite in2="hardAlpha" operator="arithmetic" k2="-1" k3="1"/>
<feColorMatrix type="matrix" values="0 0 0 0 0.882353 0 0 0 0 0.890196 0 0 0 0 0.898039 0 0 0 1 0"/>
<feBlend mode="normal" in2="shape" result="effect1_innerShadow_1_218"/>
</filter>
</defs>
</svg>
