<svg width="18" height="23" viewBox="0 0 18 23" fill="none" xmlns="http://www.w3.org/2000/svg">
<path d="M0 19.125V16.875H2.25V9C2.25 7.44375 2.71875 6.06075 3.65625 4.851C4.59375 3.642 5.8125 2.85 7.3125 2.475V1.6875C7.3125 1.21875 7.47675 0.8205 7.80525 0.49275C8.133 0.16425 8.53125 0 9 0C9.46875 0 9.867 0.16425 10.1947 0.49275C10.5233 0.8205 10.6875 1.21875 10.6875 1.6875V2.475C12.1875 2.85 13.4062 3.642 14.3438 4.851C15.2812 6.06075 15.75 7.44375 15.75 9V16.875H18V19.125H0ZM9 22.5C8.38125 22.5 7.85175 22.2799 7.4115 21.8396C6.9705 21.3986 6.75 20.8687 6.75 20.25H11.25C11.25 20.8687 11.0299 21.3986 10.5896 21.8396C10.1486 22.2799 9.61875 22.5 9 22.5ZM4.5 16.875H13.5V9C13.5 7.7625 13.0594 6.70313 12.1781 5.82188C11.2969 4.94063 10.2375 4.5 9 4.5C7.7625 4.5 6.70313 4.94063 5.82188 5.82188C4.94063 6.70313 4.5 7.7625 4.5 9V16.875Z" fill="#222222"/>
</svg>
